<svg xmlns="http://www.w3.org/2000/svg" viewBox="0 0 820 600" width="820" height="600">
  <rect width="820" height="600" fill="#1a1a2e"/>
  <!-- Header -->
  <rect x="10" y="10" width="800" height="38" rx="3" fill="#0f3460" stroke="#a78bfa" stroke-width="1.5"/>
  <text x="410" y="34" fill="#a78bfa" font-family="monospace" font-size="14" font-weight="bold" text-anchor="middle">RUFLO HIVE MIND + KB</text>
  <!-- HIVE MIND box -->
  <rect x="260" y="65" width="300" height="110" rx="4" fill="#16213e" stroke="#a78bfa" stroke-width="1.5"/>
  <text x="410" y="89" fill="#a78bfa" font-family="monospace" font-size="13" font-weight="bold" text-anchor="middle">HIVE MIND</text>
  <text x="410" y="107" fill="#a78bfa" font-family="monospace" font-size="11" text-anchor="middle">(Queen Coordinator)</text>
  <line x1="272" y1="114" x2="548" y2="114" stroke="#a78bfa" stroke-width="0.5" opacity="0.4"/>
  <text x="410" y="134" fill="#94a3b8" font-family="monospace" font-size="11" text-anchor="middle">KB Memory: Persistent</text>
  <text x="410" y="152" fill="#94a3b8" font-family="monospace" font-size="11" text-anchor="middle">Consensus: Byzantine</text>
  <!-- Fork from HIVE MIND to 3 agent groups -->
  <line x1="410" y1="175" x2="410" y2="205" stroke="#64748b" stroke-width="2"/>
  <line x1="150" y1="205" x2="670" y2="205" stroke="#64748b" stroke-width="2"/>
  <line x1="150" y1="205" x2="150" y2="240" stroke="#64748b" stroke-width="2"/>
  <polygon points="145,237 150,247 155,237" fill="#64748b"/>
  <line x1="410" y1="205" x2="410" y2="240" stroke="#64748b" stroke-width="2"/>
  <polygon points="405,237 410,247 415,237" fill="#64748b"/>
  <line x1="670" y1="205" x2="670" y2="240" stroke="#64748b" stroke-width="2"/>
  <polygon points="665,237 670,247 675,237" fill="#64748b"/>
  <!-- WORKER AGENTS box -->
  <rect x="30" y="247" width="240" height="110" rx="4" fill="#16213e" stroke="#4ade80" stroke-width="1.5"/>
  <text x="150" y="270" fill="#4ade80" font-family="monospace" font-size="12" font-weight="bold" text-anchor="middle">WORKER AGENTS</text>
  <line x1="42" y1="277" x2="258" y2="277" stroke="#4ade80" stroke-width="0.5" opacity="0.4"/>
  <text x="150" y="297" fill="#94a3b8" font-family="monospace" font-size="11" text-anchor="middle">Task Execution</text>
  <text x="150" y="315" fill="#94a3b8" font-family="monospace" font-size="11" text-anchor="middle">KB Grounding</text>
  <!-- SCOUT AGENTS box -->
  <rect x="290" y="247" width="240" height="110" rx="4" fill="#16213e" stroke="#fb923c" stroke-width="1.5"/>
  <text x="410" y="270" fill="#fb923c" font-family="monospace" font-size="12" font-weight="bold" text-anchor="middle">SCOUT AGENTS</text>
  <line x1="302" y1="277" x2="518" y2="277" stroke="#fb923c" stroke-width="0.5" opacity="0.4"/>
  <text x="410" y="297" fill="#94a3b8" font-family="monospace" font-size="11" text-anchor="middle">KB Exploration</text>
  <text x="410" y="315" fill="#94a3b8" font-family="monospace" font-size="11" text-anchor="middle">Gap Detection</text>
  <!-- SPECIALIST AGENTS box -->
  <rect x="550" y="247" width="240" height="110" rx="4" fill="#16213e" stroke="#4a9eff" stroke-width="1.5"/>
  <text x="670" y="270" fill="#4a9eff" font-family="monospace" font-size="12" font-weight="bold" text-anchor="middle">SPECIALIST AGENTS</text>
  <line x1="562" y1="277" x2="778" y2="277" stroke="#4a9eff" stroke-width="0.5" opacity="0.4"/>
  <text x="670" y="297" fill="#94a3b8" font-family="monospace" font-size="11" text-anchor="middle">Domain Expertise</text>
  <text x="670" y="315" fill="#94a3b8" font-family="monospace" font-size="11" text-anchor="middle">KB Authority</text>
  <!-- Lines converging then splitting to 3 memory boxes -->
  <line x1="150" y1="359" x2="150" y2="400" stroke="#64748b" stroke-width="2"/>
  <line x1="150" y1="400" x2="410" y2="400" stroke="#64748b" stroke-width="2"/>
  <line x1="410" y1="359" x2="410" y2="400" stroke="#64748b" stroke-width="2"/>
  <line x1="670" y1="359" x2="670" y2="400" stroke="#64748b" stroke-width="2"/>
  <line x1="670" y1="400" x2="410" y2="400" stroke="#64748b" stroke-width="2"/>
  <!-- Fork to 3 memory boxes -->
  <line x1="410" y1="400" x2="150" y2="430" stroke="#64748b" stroke-width="1.5"/>
  <line x1="410" y1="400" x2="410" y2="430" stroke="#64748b" stroke-width="1.5"/>
  <line x1="410" y1="400" x2="670" y2="430" stroke="#64748b" stroke-width="1.5"/>
  <polygon points="145,430 150,440 155,430" fill="#64748b"/>
  <polygon points="405,430 410,440 415,430" fill="#64748b"/>
  <polygon points="665,430 670,440 675,430" fill="#64748b"/>
  <!-- RUFLO MEMORY box -->
  <rect x="30" y="440" width="240" height="100" rx="4" fill="#16213e" stroke="#a78bfa" stroke-width="1.5"/>
  <text x="150" y="463" fill="#a78bfa" font-family="monospace" font-size="11" font-weight="bold" text-anchor="middle">RUFLO</text>
  <text x="150" y="479" fill="#a78bfa" font-family="monospace" font-size="11" font-weight="bold" text-anchor="middle">MEMORY</text>
  <line x1="42" y1="486" x2="258" y2="486" stroke="#a78bfa" stroke-width="0.5" opacity="0.4"/>
  <text x="150" y="505" fill="#94a3b8" font-family="monospace" font-size="10" text-anchor="middle">.swarm/memory.db</text>
  <!-- AGENTDB box -->
  <rect x="290" y="440" width="240" height="100" rx="4" fill="#16213e" stroke="#4ade80" stroke-width="1.5"/>
  <text x="410" y="466" fill="#4ade80" font-family="monospace" font-size="12" font-weight="bold" text-anchor="middle">AGENTDB</text>
  <text x="410" y="482" fill="#4ade80" font-family="monospace" font-size="11" text-anchor="middle">(Vector)</text>
  <line x1="302" y1="489" x2="518" y2="489" stroke="#4ade80" stroke-width="0.5" opacity="0.4"/>
  <text x="410" y="509" fill="#94a3b8" font-family="monospace" font-size="11" text-anchor="middle">164x faster</text>
  <!-- RUVECTOR KB box -->
  <rect x="550" y="440" width="240" height="100" rx="4" fill="#16213e" stroke="#4a9eff" stroke-width="1.5"/>
  <text x="670" y="463" fill="#4a9eff" font-family="monospace" font-size="12" font-weight="bold" text-anchor="middle">RUVECTOR KB</text>
  <text x="670" y="479" fill="#4a9eff" font-family="monospace" font-size="11" text-anchor="middle">(PostgreSQL)</text>
  <line x1="562" y1="486" x2="778" y2="486" stroke="#4a9eff" stroke-width="0.5" opacity="0.4"/>
  <text x="670" y="509" fill="#94a3b8" font-family="monospace" font-size="11" text-anchor="middle">77+ functions</text>
  <!-- Footer note -->
  <text x="410" y="572" fill="#475569" font-family="monospace" font-size="10" text-anchor="middle">All agents inherit KB binding — no agent can bypass EnforcedKBAccess</text>
</svg>
