<svg xmlns="http://www.w3.org/2000/svg" viewBox="0 0 720 300" width="720" height="300">
  <defs>
    <marker id="fc-arrow" markerWidth="10" markerHeight="7" refX="10" refY="3.5" orient="auto">
      <polygon points="0 0, 10 3.5, 0 7" fill="#f59e0b"/>
    </marker>
  </defs>
  <style>
    text { font-family: system-ui, -apple-system, sans-serif; fill: #e0e0e0; }
    .title { font-size: 18px; font-weight: 700; }
    .provider { font-size: 13px; font-weight: 700; }
    .model { font-size: 11px; fill: #c0c0c0; }
    .tier { font-size: 10px; fill: #888; }
    .fail { font-size: 9px; fill: #f59e0b; font-weight: 600; }
  </style>
  <rect width="720" height="300" rx="12" fill="#1a1a2e"/>
  <text x="360" y="35" text-anchor="middle" class="title">LLM Fallback Chain</text>

  <!-- Provider 1: groq-free -->
  <rect x="30" y="65" width="120" height="75" rx="8" fill="#0f3460" stroke="#10b981" stroke-width="2"/>
  <text x="90" y="88" text-anchor="middle" class="provider" fill="#10b981">groq-free</text>
  <text x="90" y="106" text-anchor="middle" class="model">llama-3.3</text>
  <text x="90" y="122" text-anchor="middle" class="tier">(free tier)</text>
  <circle cx="30" y="78" r="8" fill="#10b981" opacity="0.3"/>
  <text x="30" y="82" text-anchor="middle" font-size="10" font-weight="700" fill="#10b981">1</text>

  <!-- Arrow 1->2 -->
  <line x1="150" y1="102" x2="178" y2="102" stroke="#f59e0b" stroke-width="1.5" marker-end="url(#fc-arrow)"/>
  <text x="164" y="95" text-anchor="middle" class="fail">fail</text>

  <!-- Provider 2: openai -->
  <rect x="190" y="65" width="120" height="75" rx="8" fill="#0f3460" stroke="#00d4ff" stroke-width="1.5"/>
  <text x="250" y="88" text-anchor="middle" class="provider" fill="#00d4ff">openai</text>
  <text x="250" y="106" text-anchor="middle" class="model">gpt-4o</text>
  <text x="250" y="122" text-anchor="middle" class="tier">(paid)</text>
  <circle cx="190" y="78" r="8" fill="#00d4ff" opacity="0.3"/>
  <text x="190" y="82" text-anchor="middle" font-size="10" font-weight="700" fill="#00d4ff">2</text>

  <!-- Arrow 2->3 -->
  <line x1="310" y1="102" x2="338" y2="102" stroke="#f59e0b" stroke-width="1.5" marker-end="url(#fc-arrow)"/>
  <text x="324" y="95" text-anchor="middle" class="fail">fail</text>

  <!-- Provider 3: anthropic -->
  <rect x="350" y="65" width="120" height="75" rx="8" fill="#0f3460" stroke="#7c3aed" stroke-width="1.5"/>
  <text x="410" y="88" text-anchor="middle" class="provider" fill="#7c3aed">anthropic</text>
  <text x="410" y="106" text-anchor="middle" class="model">claude sonnet 4</text>
  <text x="410" y="122" text-anchor="middle" class="tier">(paid)</text>
  <circle cx="350" y="78" r="8" fill="#7c3aed" opacity="0.3"/>
  <text x="350" y="82" text-anchor="middle" font-size="10" font-weight="700" fill="#7c3aed">3</text>

  <!-- Arrow 3->4 -->
  <line x1="470" y1="102" x2="498" y2="102" stroke="#f59e0b" stroke-width="1.5" marker-end="url(#fc-arrow)"/>
  <text x="484" y="95" text-anchor="middle" class="fail">fail</text>

  <!-- Provider 4: openrouter -->
  <rect x="510" y="65" width="120" height="75" rx="8" fill="#0f3460" stroke="#f59e0b" stroke-width="1.5"/>
  <text x="570" y="88" text-anchor="middle" class="provider" fill="#f59e0b">openrouter</text>
  <text x="570" y="106" text-anchor="middle" class="model">multi-model</text>
  <text x="570" y="122" text-anchor="middle" class="tier">gateway</text>
  <circle cx="510" y="78" r="8" fill="#f59e0b" opacity="0.3"/>
  <text x="510" y="82" text-anchor="middle" font-size="10" font-weight="700" fill="#f59e0b">4</text>

  <!-- Arrow 4->5 (down) -->
  <line x1="570" y1="140" x2="570" y2="175" stroke="#f59e0b" stroke-width="1.5" marker-end="url(#fc-arrow)"/>
  <text x="585" y="162" class="fail">fail</text>

  <!-- Provider 5: deepseek -->
  <rect x="510" y="185" width="120" height="75" rx="8" fill="#0f3460" stroke="#ef4444" stroke-width="1.5"/>
  <text x="570" y="208" text-anchor="middle" class="provider" fill="#ef4444">deepseek</text>
  <text x="570" y="226" text-anchor="middle" class="model">deepseek-chat</text>
  <text x="570" y="242" text-anchor="middle" class="tier">(last resort)</text>
  <circle cx="510" y="198" r="8" fill="#ef4444" opacity="0.3"/>
  <text x="510" y="202" text-anchor="middle" font-size="10" font-weight="700" fill="#ef4444">5</text>

  <!-- Bottom label -->
  <text x="360" y="285" text-anchor="middle" font-size="11" fill="#888" font-family="system-ui, -apple-system, sans-serif">Automatic failover: rate limits and errors trigger next provider</text>
</svg>